<mxfile host="app.diagrams.net" agent="Mozilla/5.0 (Windows NT 10.0; Win64; x64) AppleWebKit/537.36 (KHTML, like Gecko) Chrome/128.0.0.0 Safari/537.36 Edg/128.0.0.0" version="24.7.8">
  <diagram name="PÃ¡gina-1" id="qLYPTxdKmjKrDYYOTfwr">
    <mxGraphModel dx="832" dy="517" grid="1" gridSize="10" guides="1" tooltips="1" connect="1" arrows="1" fold="1" page="1" pageScale="1" pageWidth="827" pageHeight="1169" math="0" shadow="0">
      <root>
        <mxCell id="0" />
        <mxCell id="1" parent="0" />
        <mxCell id="XNNW1sa0AO4rSTBB_L8k-2" value="Client enters to website" style="shape=note;whiteSpace=wrap;html=1;backgroundOutline=1;darkOpacity=0.05;" parent="1" vertex="1">
          <mxGeometry x="90" y="10" width="210" height="50" as="geometry" />
        </mxCell>
        <mxCell id="XNNW1sa0AO4rSTBB_L8k-5" value="" style="ellipse;whiteSpace=wrap;html=1;aspect=fixed;fillColor=#000000;" parent="1" vertex="1">
          <mxGeometry x="380" y="20" width="40" height="40" as="geometry" />
        </mxCell>
        <mxCell id="XNNW1sa0AO4rSTBB_L8k-6" value="" style="endArrow=none;dashed=1;html=1;rounded=0;exitX=0;exitY=0;exitDx=210;exitDy=30;exitPerimeter=0;entryX=0;entryY=0.5;entryDx=0;entryDy=0;" parent="1" source="XNNW1sa0AO4rSTBB_L8k-2" target="XNNW1sa0AO4rSTBB_L8k-5" edge="1">
          <mxGeometry width="50" height="50" relative="1" as="geometry">
            <mxPoint x="390" y="100" as="sourcePoint" />
            <mxPoint x="440" y="50" as="targetPoint" />
          </mxGeometry>
        </mxCell>
        <mxCell id="XNNW1sa0AO4rSTBB_L8k-8" value="" style="rhombus;whiteSpace=wrap;html=1;" parent="1" vertex="1">
          <mxGeometry x="380" y="100" width="40" height="40" as="geometry" />
        </mxCell>
        <mxCell id="XNNW1sa0AO4rSTBB_L8k-9" value="" style="endArrow=classic;html=1;rounded=0;exitX=0.5;exitY=1;exitDx=0;exitDy=0;entryX=0.5;entryY=0;entryDx=0;entryDy=0;" parent="1" source="XNNW1sa0AO4rSTBB_L8k-5" target="XNNW1sa0AO4rSTBB_L8k-8" edge="1">
          <mxGeometry width="50" height="50" relative="1" as="geometry">
            <mxPoint x="390" y="200" as="sourcePoint" />
            <mxPoint x="440" y="150" as="targetPoint" />
          </mxGeometry>
        </mxCell>
        <mxCell id="XNNW1sa0AO4rSTBB_L8k-10" value="Client enters login, name and password" style="rounded=1;whiteSpace=wrap;html=1;" parent="1" vertex="1">
          <mxGeometry x="210" y="240" width="140" height="40" as="geometry" />
        </mxCell>
        <mxCell id="XNNW1sa0AO4rSTBB_L8k-11" value="Client create login, name and password" style="rounded=1;whiteSpace=wrap;html=1;" parent="1" vertex="1">
          <mxGeometry x="450" y="160" width="140" height="40" as="geometry" />
        </mxCell>
        <mxCell id="XNNW1sa0AO4rSTBB_L8k-12" value="" style="endArrow=classic;html=1;rounded=0;exitX=1;exitY=0.5;exitDx=0;exitDy=0;entryX=0.5;entryY=0;entryDx=0;entryDy=0;" parent="1" source="XNNW1sa0AO4rSTBB_L8k-8" target="XNNW1sa0AO4rSTBB_L8k-11" edge="1">
          <mxGeometry width="50" height="50" relative="1" as="geometry">
            <mxPoint x="390" y="300" as="sourcePoint" />
            <mxPoint x="440" y="250" as="targetPoint" />
            <Array as="points">
              <mxPoint x="520" y="120" />
            </Array>
          </mxGeometry>
        </mxCell>
        <mxCell id="XNNW1sa0AO4rSTBB_L8k-13" value="Client create account" style="text;html=1;align=center;verticalAlign=middle;whiteSpace=wrap;rounded=0;" parent="1" vertex="1">
          <mxGeometry x="420" y="90" width="140" height="30" as="geometry" />
        </mxCell>
        <mxCell id="XNNW1sa0AO4rSTBB_L8k-14" value="" style="endArrow=classic;html=1;rounded=0;exitX=0;exitY=0.5;exitDx=0;exitDy=0;entryX=0.5;entryY=0;entryDx=0;entryDy=0;" parent="1" source="XNNW1sa0AO4rSTBB_L8k-8" target="XNNW1sa0AO4rSTBB_L8k-10" edge="1">
          <mxGeometry width="50" height="50" relative="1" as="geometry">
            <mxPoint x="390" y="300" as="sourcePoint" />
            <mxPoint x="440" y="250" as="targetPoint" />
            <Array as="points">
              <mxPoint x="280" y="120" />
            </Array>
          </mxGeometry>
        </mxCell>
        <mxCell id="XNNW1sa0AO4rSTBB_L8k-15" value="Client login" style="text;html=1;align=center;verticalAlign=middle;whiteSpace=wrap;rounded=0;" parent="1" vertex="1">
          <mxGeometry x="260" y="90" width="100" height="30" as="geometry" />
        </mxCell>
        <mxCell id="XNNW1sa0AO4rSTBB_L8k-16" value="" style="endArrow=classic;html=1;rounded=0;exitX=0.5;exitY=1;exitDx=0;exitDy=0;entryX=1;entryY=0.5;entryDx=0;entryDy=0;" parent="1" source="XNNW1sa0AO4rSTBB_L8k-11" target="XNNW1sa0AO4rSTBB_L8k-10" edge="1">
          <mxGeometry width="50" height="50" relative="1" as="geometry">
            <mxPoint x="390" y="300" as="sourcePoint" />
            <mxPoint x="440" y="250" as="targetPoint" />
            <Array as="points">
              <mxPoint x="520" y="260" />
            </Array>
          </mxGeometry>
        </mxCell>
        <mxCell id="AH_RoNsJPU5OpsRXKEe3-19" style="edgeStyle=orthogonalEdgeStyle;rounded=0;orthogonalLoop=1;jettySize=auto;html=1;exitX=0.5;exitY=1;exitDx=0;exitDy=0;entryX=0.5;entryY=0;entryDx=0;entryDy=0;" parent="1" source="AH_RoNsJPU5OpsRXKEe3-1" target="AH_RoNsJPU5OpsRXKEe3-12" edge="1">
          <mxGeometry relative="1" as="geometry" />
        </mxCell>
        <mxCell id="AH_RoNsJPU5OpsRXKEe3-1" value="Expand menu" style="rounded=1;whiteSpace=wrap;html=1;" parent="1" vertex="1">
          <mxGeometry x="315" y="420" width="170" height="30" as="geometry" />
        </mxCell>
        <mxCell id="AH_RoNsJPU5OpsRXKEe3-5" value="" style="endArrow=classic;html=1;rounded=0;exitX=0.5;exitY=1;exitDx=0;exitDy=0;entryX=0.5;entryY=0;entryDx=0;entryDy=0;" parent="1" source="XNNW1sa0AO4rSTBB_L8k-10" target="AH_RoNsJPU5OpsRXKEe3-10" edge="1">
          <mxGeometry width="50" height="50" relative="1" as="geometry">
            <mxPoint x="390" y="320" as="sourcePoint" />
            <mxPoint x="400" y="320" as="targetPoint" />
            <Array as="points">
              <mxPoint x="280" y="300" />
              <mxPoint x="400" y="300" />
            </Array>
          </mxGeometry>
        </mxCell>
        <mxCell id="AH_RoNsJPU5OpsRXKEe3-7" value="" style="endArrow=classic;html=1;rounded=0;exitX=0.5;exitY=1;exitDx=0;exitDy=0;entryX=0.5;entryY=0;entryDx=0;entryDy=0;" parent="1" source="AH_RoNsJPU5OpsRXKEe3-10" target="AH_RoNsJPU5OpsRXKEe3-1" edge="1">
          <mxGeometry width="50" height="50" relative="1" as="geometry">
            <mxPoint x="400" y="400" as="sourcePoint" />
            <mxPoint x="440" y="440" as="targetPoint" />
          </mxGeometry>
        </mxCell>
        <mxCell id="AH_RoNsJPU5OpsRXKEe3-8" value="" style="endArrow=classic;html=1;rounded=0;exitX=0;exitY=0.5;exitDx=0;exitDy=0;entryX=0;entryY=0.5;entryDx=0;entryDy=0;" parent="1" source="AH_RoNsJPU5OpsRXKEe3-10" target="XNNW1sa0AO4rSTBB_L8k-10" edge="1">
          <mxGeometry width="50" height="50" relative="1" as="geometry">
            <mxPoint x="360" y="360" as="sourcePoint" />
            <mxPoint x="440" y="440" as="targetPoint" />
            <Array as="points">
              <mxPoint x="160" y="360" />
              <mxPoint x="160" y="260" />
            </Array>
          </mxGeometry>
        </mxCell>
        <mxCell id="AH_RoNsJPU5OpsRXKEe3-10" value="" style="rhombus;whiteSpace=wrap;html=1;" parent="1" vertex="1">
          <mxGeometry x="380" y="340" width="40" height="40" as="geometry" />
        </mxCell>
        <mxCell id="AH_RoNsJPU5OpsRXKEe3-20" style="edgeStyle=orthogonalEdgeStyle;rounded=0;orthogonalLoop=1;jettySize=auto;html=1;exitX=1;exitY=0.5;exitDx=0;exitDy=0;entryX=1;entryY=0.5;entryDx=0;entryDy=0;" parent="1" source="AH_RoNsJPU5OpsRXKEe3-12" target="AH_RoNsJPU5OpsRXKEe3-1" edge="1">
          <mxGeometry relative="1" as="geometry">
            <Array as="points">
              <mxPoint x="520" y="520" />
              <mxPoint x="520" y="435" />
            </Array>
          </mxGeometry>
        </mxCell>
        <mxCell id="AH_RoNsJPU5OpsRXKEe3-12" value="" style="rhombus;whiteSpace=wrap;html=1;" parent="1" vertex="1">
          <mxGeometry x="380" y="500" width="40" height="40" as="geometry" />
        </mxCell>
        <mxCell id="AH_RoNsJPU5OpsRXKEe3-13" value="" style="ellipse;whiteSpace=wrap;html=1;aspect=fixed;" parent="1" vertex="1">
          <mxGeometry x="375" y="580" width="50" height="50" as="geometry" />
        </mxCell>
        <mxCell id="AH_RoNsJPU5OpsRXKEe3-14" value="" style="ellipse;whiteSpace=wrap;html=1;aspect=fixed;fillColor=#000000;" parent="1" vertex="1">
          <mxGeometry x="382.5" y="587.5" width="35" height="35" as="geometry" />
        </mxCell>
        <mxCell id="AH_RoNsJPU5OpsRXKEe3-16" value="" style="endArrow=classic;html=1;rounded=0;exitX=0.5;exitY=1;exitDx=0;exitDy=0;entryX=0.5;entryY=0;entryDx=0;entryDy=0;" parent="1" source="AH_RoNsJPU5OpsRXKEe3-12" target="AH_RoNsJPU5OpsRXKEe3-13" edge="1">
          <mxGeometry width="50" height="50" relative="1" as="geometry">
            <mxPoint x="400" y="470" as="sourcePoint" />
            <mxPoint x="450" y="420" as="targetPoint" />
          </mxGeometry>
        </mxCell>
        <mxCell id="AH_RoNsJPU5OpsRXKEe3-21" value="Finish process" style="text;html=1;align=center;verticalAlign=middle;whiteSpace=wrap;rounded=0;" parent="1" vertex="1">
          <mxGeometry x="301" y="540" width="90" height="30" as="geometry" />
        </mxCell>
        <mxCell id="AH_RoNsJPU5OpsRXKEe3-22" value="Continue process" style="text;html=1;align=center;verticalAlign=middle;whiteSpace=wrap;rounded=0;" parent="1" vertex="1">
          <mxGeometry x="520" y="460" width="60" height="30" as="geometry" />
        </mxCell>
        <mxCell id="RJsFZYb3c7ODi0_cU-YB-1" value="Invalid login/password" style="text;html=1;align=center;verticalAlign=middle;whiteSpace=wrap;rounded=0;" vertex="1" parent="1">
          <mxGeometry x="225" y="330" width="90" height="30" as="geometry" />
        </mxCell>
        <mxCell id="RJsFZYb3c7ODi0_cU-YB-2" value="Client succesfully logs in" style="text;html=1;align=center;verticalAlign=middle;whiteSpace=wrap;rounded=0;" vertex="1" parent="1">
          <mxGeometry x="400" y="380" width="150" height="30" as="geometry" />
        </mxCell>
      </root>
    </mxGraphModel>
  </diagram>
</mxfile>
